<svg xmlns="http://www.w3.org/2000/svg" viewBox="0 0 100 100">
  <!-- Rounded charcoal background -->
  <rect width="100" height="100" rx="22" fill="#121417"/>

  <!-- Book Pages (Jade Green #2e8f7f) -->
  <path d="M 8,76 C 20,91 38,94 50,94 C 62,94 80,91 92,76 L 92,30 C 80,23 62,17 50,22 C 38,17 20,23 8,30 Z" fill="none" stroke="#2e8f7f" stroke-width="3" stroke-linejoin="round"/>
  <path d="M 14,71 C 24,83 40,86 50,86 C 60,86 76,83 86,71 L 86,25 C 76,19 60,13 50,18 C 40,13 24,19 14,25 Z" fill="none" stroke="#2e8f7f" stroke-width="2.5" stroke-linejoin="round" opacity="0.8"/>
  <path d="M 20,66 C 28,75 42,78 50,78 C 58,78 72,75 80,66 L 80,20 C 72,15 58,9 50,14 C 42,9 28,15 20,20 Z" fill="none" stroke="#2e8f7f" stroke-width="2" stroke-linejoin="round" opacity="0.6"/>

  <!-- U Monogram (Jade Green) -->
  <path d="M 30,24 L 30,58 C 30,68 43,68 43,58 L 43,28" fill="none" stroke="#2e8f7f" stroke-width="6.5" stroke-linecap="round" stroke-linejoin="round"/>

  <!-- S Monogram / Node line (Gold/Brass #cda660) -->
  <!-- Thick S outline -->
  <path d="M 25,53 C 17,60 18,77 30,81 C 42,85 48,74 49,66 C 50,54 60,45 63,39 C 66,33 79,29 75,19 C 71,9 56,16 54,24" fill="none" stroke="#cda660" stroke-width="6" stroke-linecap="round" stroke-linejoin="round"/>
  
  <!-- Overlaid diagonal node connector line -->
  <path d="M 25,53 L 49,66 L 60,44 L 71,32 L 80,24" fill="none" stroke="#cda660" stroke-width="2.5" stroke-linecap="round" stroke-linejoin="round"/>

  <!-- Nodes (Gold) -->
  <circle cx="25" cy="53" r="3.5" fill="#cda660" stroke="#121417" stroke-width="1.2"/>
  <circle cx="49" cy="66" r="3.5" fill="#cda660" stroke="#121417" stroke-width="1.2"/>
  <circle cx="60" cy="44" r="3.5" fill="#cda660" stroke="#121417" stroke-width="1.2"/>
  <circle cx="71" cy="32" r="3.5" fill="#cda660" stroke="#121417" stroke-width="1.2"/>
  <circle cx="80" cy="24" r="3.5" fill="#cda660" stroke="#121417" stroke-width="1.2"/>
</svg>
